<svg height="359pt" viewBox="0 0 359.99152 359" width="359pt" xmlns="http://www.w3.org/2000/svg"><path d="m359.144531 180.066406c0 99.175782-80.398437 179.574219-179.574219 179.574219-99.171874 0-179.570312-80.398437-179.570312-179.574219 0-99.171875 80.398438-179.570312 179.570312-179.570312 99.175782 0 179.574219 80.398437 179.574219 179.570312zm0 0" fill="#3a484a"/><path d="m179.570312.496094c-5.449218 0-10.832031.285156-16.160156.757812 92.539063 8.335938 163.429688 85.902344 163.429688 178.8125 0 92.914063-70.890625 170.476563-163.429688 178.8125 5.328125.476563 10.710938.761719 16.160156.761719 64.359376.304687 123.957032-33.855469 156.222657-89.539063 32.265625-55.683593 32.265625-124.378906 0-180.0625-32.265625-55.683593-91.863281-89.84375-156.222657-89.539062zm0 0" fill="#59636d"/><path d="m45.683594 180.066406c.015625-90.332031 67.132812-166.589844 156.730468-178.074218-66.332031-8.5-131.894531 20.574218-170.128906 75.441406-38.238281 54.871094-42.808594 126.441406-11.863281 185.730468 30.941406 59.289063 92.273437 96.464844 159.148437 96.476563 7.640626-.015625 15.269532-.515625 22.84375-1.496094-89.597656-11.488281-156.714843-87.746093-156.730468-178.078125zm0 0" fill="#2c363e"/><path d="m248.050781 196.316406c0 20.558594-16.664062 37.222656-37.222656 37.222656s-37.222656-16.664062-37.222656-37.222656 16.664062-37.226562 37.222656-37.226562 37.222656 16.667968 37.222656 37.226562zm0 0" fill="#59636d"/><path d="m354.371094 139.023438c-7.246094-30.921876-22.585938-59.359376-44.445313-82.398438-22.757812 12.273438-31.25 40.667969-18.976562 63.421875 12.273437 22.753906 40.667969 31.25 63.421875 18.976563zm0 0" fill="#3a484a"/><path d="m291.996094 73.867188c15.289062 20.761718 25.898437 44.585937 31.105468 69.835937 10.648438 2.125 21.707032.46875 31.269532-4.679687-7.246094-30.921876-22.589844-59.359376-44.445313-82.398438-7.417969 4.03125-13.609375 9.988281-17.929687 17.242188zm0 0" fill="#59636d"/><path d="m11.171875 117.601562c16.566406 27.480469 48.40625 41.84375 79.972656 36.074219 31.566407-5.769531 56.265625-30.46875 62.035157-62.035156 5.769531-31.566406-8.59375-63.410156-36.074219-79.972656-49.019531 18.25-87.683594 56.914062-105.933594 105.933593zm0 0" fill="#59636d"/><path d="m110.710938 278.285156c-22.894532.007813-42.773438 15.773438-48 38.066406 24.847656 21.371094 55.089843 35.5 87.425781 40.84375 11.242187-14.929687 13.070312-34.941406 4.714843-51.664062-8.355468-16.71875-25.449218-27.273438-44.144531-27.246094zm0 0" fill="#59636d"/><path d="m117.105469 11.667969c-2.925781 1.082031-5.804688 2.25-8.652344 3.484375-.546875.234375-1.078125.492187-1.601563.730468-2.308593 1.023438-4.59375 2.085938-6.851562 3.199219-.703125.351563-1.394531.71875-2.09375 1.074219-2.070312 1.066406-4.121094 2.164062-6.148438 3.292969-.757812.421875-1.503906.859375-2.253906 1.289062-1.953125 1.136719-3.886718 2.308594-5.796875 3.515625-.734375.464844-1.46875.933594-2.195312 1.410156-1.917969 1.253907-3.808594 2.542969-5.671875 3.871094-.660156.46875-1.328125.933594-2 1.410156-1.96875 1.433594-3.894532 2.914063-5.800782 4.429688-.503906.402344-1.019531.800781-1.523437 1.199219-2.222656 1.808593-4.402344 3.664062-6.535156 5.570312-.152344.136719-.3125.261719-.464844.398438-4.710937 4.238281-9.191406 8.722656-13.429687 13.433593-.136719.152344-.265626.3125-.402344.460938-1.90625 2.132812-3.761719 4.3125-5.570313 6.539062-.402343.5-.800781 1.015626-1.203125 1.519532-1.511718 1.902344-2.996094 3.835937-4.429687 5.804687-.476563.652344-.941407 1.316407-1.410157 1.976563-1.332031 1.863281-2.621093 3.753906-3.871093 5.671875-.476563.726562-.9375 1.457031-1.40625 2.195312-1.207031 1.910157-2.382813 3.84375-3.519531 5.800781-.433594.742188-.871094 1.492188-1.289063 2.242188-1.140625 2.023438-2.238281 4.074219-3.292969 6.148438-.359375.703124-.726562 1.398437-1.078125 2.109374-1.117187 2.253907-2.179687 4.542969-3.203125 6.851563-.238281.539063-.496094 1.066406-.726562 1.597656-1.230469 2.851563-2.398438 5.738281-3.488282 8.664063 8.648438 14.304687 21.6875 25.433594 37.167969 31.730468 9.015625-51.832031 40.304688-97.101562 85.601563-123.855468-4.949219-5.355469-10.625-9.988282-16.859375-13.765625zm0 0" fill="#3a484a"/><path d="m156.476562 345.90625c-29.679687-12.335938-55.515624-32.390625-74.828124-58.082031-9.511719 6.949219-16.222657 17.066406-18.933594 28.527343 6.082031 5.222657 12.507812 10.03125 19.230468 14.398438l.109376.074219c10.089843 6.539062 20.808593 12.042969 32 16.429687l.546874.21875c7.5 2.917969 15.191407 5.320313 23.019532 7.199219l.625.144531c3.910156.917969 7.863281 1.722656 11.867187 2.398438 2.605469-3.472656 4.746094-7.277344 6.363281-11.308594zm0 0" fill="#3a484a"/><g fill="#2c363e"><path d="m111.382812 212.777344h-65.332031c-4.417969 0-8-3.582032-8-8 0-4.417969 3.582031-8 8-8h65.332031c4.417969 0 8 3.582031 8 8 0 4.417968-3.582031 8-8 8zm0 0"/><path d="m225.257812 292.234375h-28.855468c-4.417969 0-8-3.582031-8-8s3.582031-8 8-8h28.855468c4.417969 0 8 3.582031 8 8s-3.582031 8-8 8zm0 0"/><path d="m225.257812 108.128906h-28.855468c-4.417969 0-8-3.582031-8-8 0-4.417968 3.582031-8 8-8h28.855468c4.417969 0 8 3.582032 8 8 0 4.417969-3.582031 8-8 8zm0 0"/><path d="m268.394531 292.234375h-11.839843c-4.417969 0-8-3.582031-8-8s3.582031-8 8-8h11.839843c4.417969 0 8 3.582031 8 8s-3.582031 8-8 8zm0 0"/><path d="m309.171875 228.421875h-11.851563c-4.417968 0-8-3.578125-8-8 0-4.417969 3.582032-8 8-8h11.851563c4.417969 0 8 3.582031 8 8 0 4.421875-3.582031 8-8 8zm0 0"/></g></svg>